#!OML:ASF F:\VICON\USERDATA\INSTALL\rory3\rory3.ASF
:FULLY-SPECIFIED
:DEGREES
2654
root -0.0552813 15.3731 -2.37877 5.54251 8.83437 3.1423
lowerback 34.2816 2.60558 5.56359
upperback 13.1545 5.29821 3.26034
thorax -2.73522 2.73001 -1.20556
lowerneck -11.8741 13.0183 -2.54471
upperneck -8.88529 17.9886 -1.50558
head -0.990204 9.22743 0.35883
rclavicle -1.59028e-014 0
rhumerus 26.2714 6.08083 -68.2949
rradius 119.532
rwrist 31.1056
rhand 26.9282 8.26843
rfingers 7.12502
rthumb 50.9253 -12.4546
lclavicle -1.59028e-014 0
lhumerus 23.1972 -25.8192 76.8787
lradius 120.678
lwrist 2.84937
lhand -6.04135 20.921
lfingers 7.12502
lthumb 19.7926 49.9332
rfemur -31.4756 2.29539 12.12
rtibia 46.9863
rfoot -15.5164 -13.3422
rtoes -16.9279
lfemur -31.2507 -12.4779 -16.6582
ltibia 37.7202
lfoot -8.18147 2.01639
ltoes -15.7761
2655
root -0.0695123 15.3798 -2.36401 5.67405 9.33083 3.22013
lowerback 34.2448 2.60972 5.666
upperback 13.1145 5.35409 3.43967
thorax -2.77069 2.75505 -1.09067
lowerneck -11.9298 13.0522 -2.75926
upperneck -8.95952 18.0547 -1.77574
head -0.998663 9.2711 0.311896
rclavicle 7.4743e-014 -1.59028e-015
rhumerus 25.3322 6.53424 -68.3433
rradius 120.329
rwrist 30.9724
rhand 26.0172 7.86841
rfingers 7.12502
rthumb 50.0934 -13.3052
lclavicle 7.4743e-014 -1.59028e-015
lhumerus 23.5089 -25.6392 77.236
lradius 120.788
lwrist 2.66692
lhand -6.97423 20.5791
lfingers 7.12502
lthumb 18.8956 49.6813
rfemur -31.4337 2.09192 12.1008
rtibia 46.975
rfoot -15.5912 -13.6184
rtoes -16.7344
lfemur -31.2978 -12.6121 -16.6774
ltibia 37.473
lfoot -7.97014 1.67228
ltoes -15.5474
2656
root -0.0849053 15.3841 -2.3488 5.77378 9.81512 3.22733
lowerback 34.1714 2.60846 5.75603
upperback 13.1147 5.39884 3.6854
thorax -2.75803 2.77388 -0.893906
lowerneck -11.9588 13.0974 -3.06057
upperneck -9.05781 18.1469 -2.0301
head -1.02841 9.33125 0.277926
rclavicle 1.43125e-014 -5.08889e-014
rhumerus 24.6108 7.0378 -68.3846
rradius 121.289
rwrist 30.1719
rhand 26.1841 8.27091
rfingers 7.12502
rthumb 50.246 -12.8217
lclavicle 1.43125e-014 -5.08889e-014
lhumerus 23.4066 -25.3972 77.6174
lradius 120.77
lwrist 2.47619
lhand -7.8958 20.2557
lfingers 7.12502
lthumb 18.0091 49.4419
rfemur -31.3767 1.91444 12.1655
rtibia 46.9875
rfoot -15.6906 -13.872
rtoes -16.4902
lfemur -31.3162 -12.6809 -16.6351
ltibia 37.2259
lfoot -7.79782 1.32805
ltoes -15.5613
2657
root -0.0995544 15.3898 -2.33244 5.84638 10.2513 3.30913
lowerback 34.3405 2.58569 5.81992
upperback 12.9553 5.42673 3.80812
thorax -2.99606 2.77609 -0.823232
lowerneck -11.8541 13.161 -3.09665
upperneck -9.09096 18.2213 -2.34114
head -1.02824 9.37204 0.186796
rclavicle 1.66979e-013 2.38542e-014
rhumerus 23.9067 7.46274 -68.6243
rradius 122.541
rwrist 28.3649
rhand 28.2275 9.16681
rfingers 7.12502
rthumb 52.1065 -10.8754
lclavicle 1.66979e-013 2.38542e-014
lhumerus 23.0056 -25.1827 77.8632
lradius 120.473
lwrist 2.10715
lhand -8.26531 19.7571
lfingers 7.12502
lthumb 17.6535 48.9756
rfemur -31.2713 1.79493 12.1442
rtibia 46.9929
rfoot -15.768 -14.1349
rtoes -16.2306
lfemur -31.2669 -12.7925 -16.669
ltibia 36.9813
lfoot -7.68604 1.06129
ltoes -15.236
2658
root -0.111578 15.3956 -2.31588 5.98261 10.6329 3.47534
lowerback 34.8698 2.55835 5.96258
upperback 12.4654 5.50549 3.74429
thorax -3.69114 2.78776 -1.0324
lowerneck -11.7282 13.1674 -2.90242
upperneck -8.77548 18.1918 -2.38841
head -0.924751 9.34197 0.154772
rclavicle 3.65764e-014 -4.45278e-014
rhumerus 22.9573 7.89253 -69.0317
rradius 123.926
rwrist 26.8049
rhand 29.7014 9.60581
rfingers 7.12502
rthumb 53.4383 -9.60503
lclavicle 3.65764e-014 -4.45278e-014
lhumerus 22.5101 -25.3151 78.0183
lradius 119.83
lwrist 1.55743
lhand -8.09245 19.6184
lfingers 7.12502
lthumb 17.8199 48.8219
rfemur -31.2172 1.66277 12.0218
rtibia 46.9944
rfoot -15.8251 -14.3774
rtoes -16.1538
lfemur -31.2687 -12.8817 -16.8034
ltibia 36.7638
lfoot -7.54903 0.847296
ltoes -15.0009
2659
root -0.123508 15.4005 -2.30029 6.13088 11.0315 3.59951
lowerback 34.7334 2.54691 6.00466
upperback 12.4696 5.50677 3.82612
thorax -3.64277 2.79158 -0.964378
lowerneck -11.7654 13.1797 -2.85214
upperneck -8.75651 18.199 -2.56863
head -0.891124 9.34506 0.101736
rclavicle -7.31528e-014 -2.70347e-014
rhumerus 22.9103 8.34493 -69.0607
rradius 125.188
rwrist 25.885
rhand 29.4152 9.59441
rfingers 7.12502
rthumb 53.1804 -9.78301
lclavicle -7.31528e-014 -2.70347e-014
lhumerus 22.5219 -25.2729 78.0069
lradius 118.825
lwrist 0.923872
lhand -7.71487 19.8827
lfingers 7.12502
lthumb 18.1832 49.0528
rfemur -31.1989 1.47135 11.9521
rtibia 47.0236
rfoot -15.8911 -14.5747
rtoes -16.1947
lfemur -31.3261 -12.9487 -16.891
ltibia 36.5802
lfoot -7.37327 0.594632
ltoes -14.9518
2660
root -0.137437 15.4038 -2.28561 6.23325 11.3864 3.5927
lowerback 34.645 2.51687 6.11717
upperback 12.4521 5.51159 3.91848
thorax -3.62828 2.79621 -0.925339
lowerneck -11.7025 13.1884 -2.76126
upperneck -8.76047 18.1954 -2.67739
head -0.883204 9.34151 0.054889
rclavicle -1.11319e-014 -1.74931e-014
rhumerus 23.0743 8.81288 -69.0429
rradius 126.375
rwrist 25.2882
rhand 28.9817 9.6022
rfingers 7.12502
rthumb 52.7891 -10.0228
lclavicle -1.11319e-014 -1.74931e-014
lhumerus 22.3264 -25.3442 77.9086
lradius 117.561
lwrist 0.374058
lhand -7.257 20.3986
lfingers 7.12502
lthumb 18.6236 49.5271
rfemur -31.196 1.38688 12.0298
rtibia 47.0731
rfoot -16.0182 -14.8339
rtoes -16.2286
lfemur -31.3855 -12.9195 -16.8343
ltibia 36.4299
lfoot -7.20534 0.286675
ltoes -14.863
2661
root -0.14918 15.401 -2.27249 6.33917 11.652 3.62176
lowerback 34.5707 2.52119 6.20176
upperback 12.4187 5.54715 3.96605
thorax -3.63291 2.815 -0.92955
lowerneck -11.6499 13.1853 -2.59954
upperneck -8.67813 18.1678 -2.75414
head -0.843265 9.32119 0.0127303
rclavicle 3.65764e-014 0
rhumerus 23.4046 9.13975 -68.9709
rradius 127.531
rwrist 24.9519
rhand 28.873 9.65182
rfingers 7.12502
rthumb 52.6909 -10.0343
lclavicle 3.65764e-014 0
lhumerus 22.237 -25.5918 77.6041
lradius 116.149
lwrist 0.0876708
lhand -6.72067 21.1799
lfingers 7.12502
lthumb 19.1395 50.2581
rfemur -31.2407 1.33054 12.0561
rtibia 47.1503
rfoot -16.1047 -15.0322
rtoes -16.1653
lfemur -31.4451 -12.898 -16.819
ltibia 36.2923
lfoot -7.08034 0.044495
ltoes -14.796
2662
root -0.157434 15.4021 -2.26045 6.40414 11.9285 3.76058
lowerback 34.5346 2.51255 6.21471
upperback 12.4169 5.54562 4.00655
thorax -3.62518 2.8157 -0.892648
lowerneck -11.6775 13.1836 -2.53613
upperneck -8.51086 18.1573 -2.77023
head -0.779239 9.31014 0.010547
rclavicle 4.13472e-014 -1.59028e-014
rhumerus 23.944 9.28304 -68.7781
rradius 128.718
rwrist 24.716
rhand 28.7023 9.32457
rfingers 7.12502
rthumb 52.5366 -10.4569
lclavicle 4.13472e-014 -1.59028e-014
lhumerus 21.9437 -25.9132 77.2269
lradius 114.727
lwrist 0.0336735
lhand -6.04859 22.1009
lfingers 7.12502
lthumb 19.7856 51.1139
rfemur -31.1905 1.19602 11.952
rtibia 47.2221
rfoot -16.2243 -15.1299
rtoes -15.724
lfemur -31.4162 -12.978 -16.9476
ltibia 36.1405
lfoot -7.06875 -0.130497
ltoes -14.8357
2663
root -0.166999 15.4072 -2.25056 6.39971 12.2562 3.87951
lowerback 34.6027 2.45709 6.2576
upperback 12.4292 5.5037 4.04087
thorax -3.637 2.79754 -0.867698
lowerneck -11.7558 13.1661 -2.55977
upperneck -8.38005 18.1434 -2.64472
head -0.740361 9.30058 0.0605938
rclavicle 2.8625e-014 3.18055e-015
rhumerus 24.7177 9.27779 -68.6001
rradius 129.698
rwrist 24.258
rhand 27.7096 8.95343
rfingers 7.12502
rthumb 51.6365 -11.3657
lclavicle 2.8625e-014 3.18055e-015
lhumerus 21.6888 -26.2777 76.8038
lradius 113.399
lwrist 0.311326
lhand -5.11628 23.4541
lfingers 7.12502
lthumb 20.6817 52.3722
rfemur -31.0414 1.04687 11.877
rtibia 47.2675
rfoot -16.3489 -15.2301
rtoes -15.3652
lfemur -31.3127 -13.0423 -17.0777
ltibia 35.9768
lfoot -7.01437 -0.34737
ltoes -14.819
2664
root -0.175663 15.413 -2.24267 6.38575 12.5966 3.96222
lowerback 34.6733 2.36997 6.32555
upperback 12.4322 5.4329 4.09175
thorax -3.65995 2.76489 -0.829584
lowerneck -11.7316 13.1644 -2.58227
upperneck -8.347 18.1478 -2.53245
head -0.746417 9.30264 0.0947341
rclavicle 2.8625e-014 3.02153e-014
rhumerus 25.6669 9.18687 -68.3788
rradius 130.355
rwrist 23.5794
rhand 25.3979 8.79606
rfingers 7.12502
rthumb 49.5263 -12.6719
lclavicle 2.8625e-014 3.02153e-014
lhumerus 21.5438 -26.6185 76.431
lradius 112.247
lwrist 0.756308
lhand -3.85782 24.8838
lfingers 7.12502
lthumb 21.8905 53.6655
rfemur -30.871 0.913219 11.8226
rtibia 47.2809
rfoot -16.651 -15.2094
rtoes -14.0656
lfemur -31.2129 -13.1448 -17.1513
ltibia 35.8158
lfoot -6.9333 -0.521835
ltoes -14.9286
2665
root -0.180941 15.4189 -2.23474 6.38833 12.7941 3.87591
lowerback 34.6737 2.27517 6.47916
upperback 12.4207 5.37316 4.16005
thorax -3.66611 2.73825 -0.818492
lowerneck -11.4938 13.2095 -2.61543
upperneck -8.53118 18.209 -2.51094
head -0.845787 9.33887 0.0793147
rclavicle -3.49861e-014 -7.95139e-014
rhumerus 26.7521 9.08937 -68.0782
rradius 130.744
rwrist 22.9973
rhand 23.0753 8.74205
rfingers 7.12502
rthumb 47.3884 -13.7511
lclavicle -3.49861e-014 -7.95139e-014
lhumerus 21.3953 -26.7563 76.0364
lradius 111.179
lwrist 1.3757
lhand -2.48854 26.0283
lfingers 7.12502
lthumb 23.2048 54.6504
rfemur -30.7917 0.85276 11.9426
rtibia 47.2783
rfoot -16.919 -15.1278
rtoes -12.8954
lfemur -31.1525 -13.1802 -17.0261
ltibia 35.677
lfoot -7.01199 -0.661809
ltoes -15.195
2666
root -0.186382 15.4223 -2.22918 6.39791 12.9108 3.72573
lowerback 34.6763 2.21044 6.672
upperback 12.4503 5.35686 4.20165
thorax -3.61981 2.73669 -0.86681
lowerneck -11.4227 13.259 -2.60877
upperneck -8.70188 18.2785 -2.49244
head -0.912321 9.37832 0.0710641
rclavicle 2.54444e-014 9.22361e-014
rhumerus 28.0045 8.82595 -67.7788
rradius 130.895
rwrist 22.7544
rhand 21.7461 8.65805
rfingers 7.12502
rthumb 46.1581 -14.3704
lclavicle 2.54444e-014 9.22361e-014
lhumerus 21.4003 -26.812 75.7434
lradius 110.378
lwrist 2.15293
lhand -0.884322 26.9616
lfingers 7.12502
lthumb 24.7431 55.3813
rfemur -30.792 0.852873 12.14
rtibia 47.2908
rfoot -17.0051 -15.1935
rtoes -12.7339
lfemur -31.1352 -13.1633 -16.8344
ltibia 35.5537
lfoot -7.00697 -0.775656
ltoes -15.0767
2667
root -0.19334 15.4224 -2.22685 6.48838 13.0825 3.86272
lowerback 34.7283 2.1724 6.6593
upperback 12.4762 5.30743 4.14406
thorax -3.6078 2.71675 -0.90481
lowerneck -11.5135 13.3045 -2.4858
upperneck -8.73885 18.3313 -2.5202
head -0.897311 9.40317 0.0536111
rclavicle -5.24792e-014 1.27222e-014
rhumerus 29.1681 8.30971 -67.5974
rradius 130.825
rwrist 22.5426
rhand 21.2371 8.60474
rfingers 7.12502
rthumb 45.6858 -14.6195
lclavicle -5.24792e-014 1.27222e-014
lhumerus 20.9532 -27.0742 76.0379
lradius 110.307
lwrist 2.41603
lhand 0.738413 27.496
lfingers 7.12502
lthumb 26.2975 55.6932
rfemur -30.8357 0.757864 12.0215
rtibia 47.3438
rfoot -17.0434 -15.2626
rtoes -12.6016
lfemur -31.1578 -13.2129 -16.9516
ltibia 35.4136
lfoot -6.80745 -0.861736
ltoes -14.7428
